<?xml version="1.0" encoding="utf-8"?>
<!-- Generator: Adobe Illustrator 26.2.0, SVG Export Plug-In . SVG Version: 6.00 Build 0)  -->
<svg version="1.1" id="Capa_1" xmlns="http://www.w3.org/2000/svg" xmlns:xlink="http://www.w3.org/1999/xlink" x="0px" y="0px"
	 viewBox="0 0 512 512" style="enable-background:new 0 0 512 512;" xml:space="preserve">
<style type="text/css">
	.st0{fill:#FF6666;}
</style>
<g>
	<g>
		<path class="st0" d="M256,0c-10,0-18.1,8.1-18.1,18.1v329.5c0,10,8.1,18.1,18.1,18.1c10,0,18.1-8.1,18.1-18.1V18.1
			C274.1,8.1,266,0,256,0z"/>
	</g>
</g>
<g>
	<g>
		<path class="st0" d="M377.6,239.4c-6.8-7.3-18.2-7.7-25.5-0.9L256,328.3l-96.1-89.7c-7.3-6.8-18.7-6.4-25.5,0.9
			s-6.4,18.7,0.9,25.5l108.4,101.2c3.5,3.2,7.9,4.9,12.3,4.9s8.9-1.6,12.3-4.9L376.8,265C384,258.2,384.4,246.7,377.6,239.4z"/>
	</g>
</g>
<g>
	<g>
		<path class="st0" d="M454.8,114.4H346.4c-10,0-18.1,8.1-18.1,18.1s8.1,18.1,18.1,18.1h90.4v325.3H75.3V150.6h90.4
			c10,0,18.1-8.1,18.1-18.1s-8.1-18.1-18.1-18.1H57.2c-10,0-18.1,8.1-18.1,18.1v361.4c0,10,8.1,18.1,18.1,18.1h397.6
			c10,0,18.1-8.1,18.1-18.1V132.5C472.8,122.5,464.8,114.4,454.8,114.4z"/>
	</g>
</g>
</svg>
